<?xml version="1.0" encoding="utf-8"?>
<!-- Generator: Adobe Illustrator 19.2.0, SVG Export Plug-In . SVG Version: 6.00 Build 0)  -->
<svg version="1.1" xmlns="http://www.w3.org/2000/svg" xmlns:xlink="http://www.w3.org/1999/xlink" x="0px" y="0px"
	 width="50px" height="50px" viewBox="0 0 50 50" style="enable-background:new 0 0 50 50;" xml:space="preserve">
<style type="text/css">
	.st0{fill:#0D3050;}
	.st1{fill:#FFFFFF;}
</style>
<g>
	<g>
		<g>
			<path class="st0" d="M25,0C11.2,0,0,11.2,0,25s11.2,25,25,25s25-11.2,25-25S38.8,0,25,0z"/>
		</g>
		<circle class="st1" cx="16" cy="38.9" r="1.9"/>
		<path class="st1" d="M21,35.5H10.9c-1.1,0-1.9-0.7-1.9-1.6c0-0.9,0.9-1.6,1.9-1.6H21c1.1,0,1.9,0.8,1.9,1.6
			C23,34.8,22.1,35.5,21,35.5z"/>
		<circle class="st1" cx="16" cy="28.8" r="1.9"/>
		<path class="st1" d="M21,17.8h-3.4v3.4c0,1.1-0.8,2-1.6,2c-0.9,0-1.6-0.9-1.6-2v-3.4H11c-1.1,0-1.9-0.8-1.9-1.6
			c0-0.9,0.9-1.6,1.9-1.6h3.4v-3.4c0-1.1,0.8-1.9,1.6-1.9c0.9,0,1.6,0.9,1.6,1.9v3.4H21c1.1,0,1.9,0.8,1.9,1.6
			C23,17,22.1,17.8,21,17.8z"/>
		<path class="st1" d="M29,14.5h10.1c1.1,0,1.9,0.8,1.9,1.6c0,0.9-0.9,1.6-1.9,1.6H29c-1.1,0-1.9-0.8-1.9-1.6
			C27,15.3,27.9,14.5,29,14.5z"/>
		<path class="st1" d="M39.1,38.8H29c-1.1,0-2-0.8-2-1.6s0.9-1.6,2-1.6h10.1c1.1,0,1.9,0.8,1.9,1.6S40.1,38.8,39.1,38.8z"/>
		<path class="st1" d="M39.1,32.2H29c-1.1,0-2-0.8-2-1.6c0-0.9,0.9-1.6,2-1.6h10.1c1.1,0,1.9,0.8,1.9,1.6
			C41,31.5,40.1,32.2,39.1,32.2z"/>
	</g>
</g>
</svg>
